<svg xmlns="http://www.w3.org/2000/svg" viewBox="0 0 800 500" width="100%" height="100%">
  <defs>
    <linearGradient id="bg-grad-res-ss" x1="0%" y1="0%" x2="100%" y2="100%">
      <stop offset="0%" stop-color="#090d16" />
      <stop offset="100%" stop-color="#1e293b" />
    </linearGradient>
  </defs>
  <rect width="100%" height="100%" fill="url(#bg-grad-res-ss)" />
  
  <rect x="40" y="40" width="720" height="420" rx="8" fill="#0f172a" stroke="rgba(255,255,255,0.05)" />
  <text x="70" y="80" fill="#ffffff" font-family="sans-serif" font-size="18" font-weight="bold">NLP Entity Extraction & Match Matrix</text>
  
  <!-- Keywords analysis -->
  <rect x="70" y="110" width="310" height="310" rx="6" fill="#1e293b" />
  <text x="90" y="140" fill="#10b981" font-family="sans-serif" font-size="14" font-weight="bold">Extracted Entities</text>
  
  <text x="90" y="180" fill="#94a3b8" font-family="sans-serif" font-size="12">Languages: Python, C++, SQL, Java</text>
  <rect x="90" y="195" width="270" height="4" rx="2" fill="#10b981" />
  
  <text x="90" y="230" fill="#94a3b8" font-family="sans-serif" font-size="12">Frameworks: PyTorch, Scikit-Learn, Flask</text>
  <rect x="90" y="245" width="240" height="4" rx="2" fill="#10b981" />
  
  <text x="90" y="280" fill="#94a3b8" font-family="sans-serif" font-size="12">Databases: PostgreSQL, Redis</text>
  <rect x="90" y="295" width="160" height="4" rx="2" fill="#10b981" />

  <text x="90" y="330" fill="#94a3b8" font-family="sans-serif" font-size="12">Tools: Git, Docker, Kubernetes</text>
  <rect x="90" y="345" width="180" height="4" rx="2" fill="#f59e0b" />

  <!-- Match matrix details -->
  <rect x="410" y="110" width="310" height="310" rx="6" fill="#1e293b" />
  <text x="430" y="140" fill="#06b6d4" font-family="sans-serif" font-size="14" font-weight="bold">Job Description Match Vector</text>

  <!-- Table -->
  <text x="430" y="180" fill="#ffffff" font-family="monospace" font-size="12">ATS Checkpoint           Status</text>
  <line x1="430" y1="190" x2="690" y2="190" stroke="rgba(255,255,255,0.1)" />
  
  <text x="430" y="215" fill="#94a3b8" font-family="monospace" font-size="11">Required Skills Check    MATCHED (92%)</text>
  <circle cx="680" cy="211" r="5" fill="#10b981" />
  
  <text x="430" y="250" fill="#94a3b8" font-family="monospace" font-size="11">Experience Multiplier   MATCHED (80%)</text>
  <circle cx="680" cy="246" r="5" fill="#10b981" />
  
  <text x="430" y="285" fill="#94a3b8" font-family="monospace" font-size="11">Education Alignment     MATCHED (100%)</text>
  <circle cx="680" cy="281" r="5" fill="#10b981" />

  <text x="430" y="320" fill="#94a3b8" font-family="monospace" font-size="11">Section Formatting      OPTIMIZED</text>
  <circle cx="680" cy="316" r="5" fill="#10b981" />

  <text x="430" y="355" fill="#94a3b8" font-family="monospace" font-size="11">Font & Parsing Safety    OPTIMIZED</text>
  <circle cx="680" cy="351" r="5" fill="#10b981" />
</svg>
